<svg width="11" height="23" viewBox="0 0 11 23" fill="none" xmlns="http://www.w3.org/2000/svg">
<path d="M9.97359 0.25H7.62994C5.83685 0.25 4.54892 0.67562 3.7662 1.52657C2.98323 2.37781 2.59209 3.63146 2.59209 5.28806V6.86713C2.59209 7.28444 2.25387 7.62265 1.83657 7.62265H1.02664C0.609334 7.62265 0.271118 7.96087 0.271118 8.37818V10.7445C0.271118 11.1618 0.609334 11.5 1.02664 11.5H1.83657C2.25387 11.5 2.59209 11.8382 2.59209 12.2555V21.9944C2.59209 22.4117 2.93031 22.75 3.34761 22.75H6.49209C6.9094 22.75 7.24761 22.4117 7.24761 21.9944V12.2555C7.24761 11.8382 7.58587 11.5 8.00314 11.5H9.59122C10.0086 11.5 10.3823 11.1636 10.4261 10.7488L10.6769 8.3739C10.7208 7.95889 10.4181 7.62265 10.0007 7.62265H8.00289C7.58558 7.62265 7.24737 7.28444 7.24737 6.86713V5.68397C7.24737 5.39283 7.26099 5.16745 7.28839 5.00803C7.31559 4.84886 7.37703 4.69195 7.47275 4.53706C7.56817 4.38246 7.72307 4.27543 7.93688 4.21621C8.15066 4.15704 8.43526 4.12733 8.7901 4.12733H9.97326C10.3906 4.12733 10.7287 3.78911 10.7287 3.3718V1.00552C10.7291 0.588216 10.3909 0.25 9.97359 0.25Z" fill="#273895"/>
</svg>
