<svg width="23" height="19" viewBox="0 0 23 19" fill="none" xmlns="http://www.w3.org/2000/svg">
<path d="M0.45334 16.778C2.58276 18.1293 5.06101 18.8432 7.61976 18.8432C11.3668 18.8432 14.8006 17.4038 17.2893 14.7904C19.6708 12.2892 20.9808 8.9283 20.9157 5.51759C21.8184 4.74518 22.8803 3.2703 22.8803 1.8328C22.8803 1.28176 22.2823 0.931969 21.7973 1.21276C20.9492 1.71109 20.1758 1.84143 19.3804 1.61814C17.756 0.0349691 15.3382 -0.298531 13.3008 0.799719C11.5202 1.75805 10.5302 3.5118 10.6193 5.42847C7.61113 5.06143 4.83197 3.55301 2.89422 1.20893C2.57605 0.826552 1.9723 0.871594 1.7193 1.30476C0.785882 2.90326 0.795465 4.75572 1.60717 6.25168C1.22097 6.31972 0.98234 6.64459 0.98234 6.9963C0.98234 8.49993 1.65892 9.88184 2.74855 10.8248C2.54538 11.0203 2.4783 11.3107 2.56455 11.5695C3.04372 13.0089 4.12855 14.134 5.48459 14.6975C4.00972 15.4018 2.37863 15.6366 0.926757 15.4584C0.175424 15.3568 -0.195451 16.3669 0.45334 16.778ZM7.81622 14.9438C8.35384 14.5307 8.06826 13.6701 7.39359 13.6558C6.20526 13.6308 5.1233 13.0453 4.44959 12.1243C4.77447 12.1033 5.11084 12.0534 5.43092 11.9672C6.16021 11.7698 6.12572 10.7175 5.38492 10.569C4.04038 10.2987 2.98526 9.3193 2.58947 8.05814C2.95076 8.14726 3.31876 8.19709 3.6858 8.2038C4.41317 8.20764 4.68822 7.27518 4.09501 6.88514C2.75813 6.00443 2.18792 4.44905 2.56551 2.98664C4.90001 5.3518 8.0673 6.77684 11.4176 6.93784C11.8978 6.96755 12.2581 6.51618 12.1527 6.05905C11.6975 4.08584 12.7995 2.70297 13.9831 2.06568C15.1542 1.43318 17.0344 1.23576 18.4758 2.74801C18.9041 3.19939 20.3493 3.21664 21.0843 3.04509C20.7547 3.66609 20.2477 4.25547 19.7733 4.58705C19.5711 4.72889 19.4552 4.96464 19.4676 5.21093C19.6219 8.35905 18.4489 11.489 16.2495 13.7976C14.0339 16.1235 10.9701 17.4048 7.62072 17.4048C6.28863 17.4048 4.98242 17.1882 3.74809 16.7703C5.22392 16.4848 6.62597 15.8599 7.81622 14.9438Z" fill="#273895"/>
<path d="M7.81622 14.9438C8.35384 14.5307 8.06826 13.6701 7.39359 13.6558C6.20526 13.6308 5.1233 13.0453 4.44959 12.1243C4.77447 12.1033 5.11084 12.0534 5.43092 11.9672C6.16021 11.7698 6.12572 10.7175 5.38492 10.569C4.04038 10.2987 2.98526 9.3193 2.58947 8.05814C2.95076 8.14726 3.31876 8.19709 3.6858 8.2038C4.41317 8.20764 4.68822 7.27518 4.09501 6.88514C2.75813 6.00443 2.18792 4.44905 2.56551 2.98664C4.90001 5.3518 8.0673 6.77684 11.4176 6.93784C11.8978 6.96755 12.2581 6.51618 12.1527 6.05905C11.6975 4.08584 12.7995 2.70297 13.9831 2.06568C15.1542 1.43318 17.0344 1.23576 18.4758 2.74801C18.9041 3.19939 20.3493 3.21664 21.0843 3.04509C20.7547 3.66609 20.2477 4.25547 19.7733 4.58705C19.5711 4.72889 19.4552 4.96464 19.4676 5.21093C19.6219 8.35905 18.4489 11.489 16.2495 13.7976C14.0339 16.1235 10.9701 17.4048 7.62072 17.4048C6.28863 17.4048 4.98242 17.1882 3.74809 16.7703C5.22392 16.4848 6.62597 15.8599 7.81622 14.9438Z" fill="#273895"/>
</svg>
