<svg width="23" height="15" viewBox="0 0 23 15" fill="none" xmlns="http://www.w3.org/2000/svg">
<path d="M11.639 14.6875C14.9663 14.6875 13.7799 12.5811 14.0367 11.9754C14.0329 11.5231 14.029 11.088 14.0444 10.8235C14.2552 10.8829 14.7526 11.135 15.7799 12.1335C17.366 13.734 17.7713 14.6875 19.0526 14.6875H21.4111C22.1586 14.6875 22.5477 14.378 22.7422 14.1182C22.93 13.8672 23.114 13.4263 22.9128 12.7402C22.3867 11.088 19.3181 8.23504 19.1274 7.93412C19.1561 7.87854 19.2021 7.80475 19.2261 7.76642H19.2242C19.8298 6.96621 22.1413 3.50279 22.4815 2.11704C22.4825 2.11512 22.4835 2.11225 22.4835 2.10938C22.6675 1.47687 22.4988 1.06671 22.3244 0.834792C22.0618 0.487875 21.644 0.3125 21.0795 0.3125H18.721C17.9314 0.3125 17.3324 0.710208 17.0296 1.43567C16.5226 2.72462 15.0985 5.37537 14.031 6.31358C13.9984 4.98437 14.0204 3.9695 14.0377 3.21529C14.0722 1.74425 14.1833 0.3125 12.6567 0.3125H8.94987C7.99346 0.3125 7.07825 1.35708 8.06917 2.59717C8.9355 3.68392 8.38062 4.28958 8.5675 7.3045C7.83917 6.52346 6.5435 4.41417 5.62733 1.71837C5.3705 0.989083 4.98142 0.313458 3.88604 0.313458H1.52758C0.571167 0.313458 0 0.834791 0 1.70783C0 3.66858 4.34029 14.6875 11.639 14.6875ZM3.88604 1.75096C4.094 1.75096 4.11508 1.75096 4.26937 2.18892C5.20758 4.95179 7.31208 9.04004 8.84925 9.04004C10.004 9.04004 10.004 7.8565 10.004 7.41087L10.0031 3.86312C9.93983 2.68917 9.51242 2.10458 9.23162 1.75L12.5935 1.75383C12.5954 1.77013 12.5743 5.67821 12.603 6.62504C12.603 7.96958 13.6706 8.74008 15.3372 7.05342C17.0957 5.06871 18.3118 2.10171 18.3607 1.98096C18.4326 1.80846 18.4949 1.75 18.721 1.75H21.0795H21.0891C21.0881 1.75287 21.0881 1.75575 21.0872 1.75862C20.8715 2.76487 18.7431 5.97146 18.031 6.96717C18.0195 6.9825 18.009 6.99879 17.9985 7.01508C17.6851 7.52683 17.4302 8.09225 18.0416 8.88767H18.0425C18.0981 8.95475 18.2428 9.11192 18.4537 9.33042C18.4599 9.3369 18.4664 9.34354 18.4729 9.35032C19.1521 10.0512 21.3593 12.3292 21.5567 13.2404C21.4245 13.2615 21.2808 13.2462 19.0526 13.251C18.5783 13.251 18.2074 12.5418 16.7919 11.1139C15.5192 9.87571 14.6932 9.36971 13.9409 9.36971C12.4804 9.36971 12.5867 10.5552 12.6002 11.9888C12.605 13.5432 12.5954 13.0516 12.6059 13.1494C12.5206 13.1829 12.2762 13.25 11.639 13.25C5.55833 13.25 1.5985 3.59862 1.44612 1.75383C1.49883 1.74904 2.22429 1.75192 3.88604 1.75096Z" fill="#273895"/>
<path d="M3.88604 1.75096C4.094 1.75096 4.11508 1.75096 4.26937 2.18892C5.20758 4.95179 7.31208 9.04004 8.84925 9.04004C10.004 9.04004 10.004 7.8565 10.004 7.41087L10.0031 3.86312C9.93983 2.68917 9.51242 2.10458 9.23162 1.75L12.5935 1.75383C12.5954 1.77013 12.5743 5.67821 12.603 6.62504C12.603 7.96958 13.6706 8.74008 15.3372 7.05342C17.0957 5.06871 18.3118 2.10171 18.3607 1.98096C18.4326 1.80846 18.4949 1.75 18.721 1.75H21.0795H21.0891C21.0881 1.75287 21.0881 1.75575 21.0872 1.75862C20.8715 2.76487 18.7431 5.97146 18.031 6.96717C18.0195 6.9825 18.009 6.99879 17.9985 7.01508C17.6851 7.52683 17.4302 8.09225 18.0416 8.88767H18.0425C18.0981 8.95475 18.2428 9.11192 18.4537 9.33042L18.4729 9.35032C19.1521 10.0512 21.3593 12.3292 21.5567 13.2404C21.4245 13.2615 21.2808 13.2462 19.0526 13.251C18.5783 13.251 18.2074 12.5418 16.7919 11.1139C15.5192 9.87571 14.6932 9.36971 13.9409 9.36971C12.4804 9.36971 12.5867 10.5552 12.6002 11.9888C12.605 13.5432 12.5954 13.0516 12.6059 13.1494C12.5206 13.1829 12.2762 13.25 11.639 13.25C5.55833 13.25 1.5985 3.59862 1.44612 1.75383C1.49883 1.74904 2.22429 1.75192 3.88604 1.75096Z" fill="#273895"/>
</svg>
