<svg width="58" height="58" viewBox="0 0 58 58" fill="none" xmlns="http://www.w3.org/2000/svg">
<g clip-path="url(#clip0_55_1283)">
<path d="M38.5571 18.5931C49.1475 18.4314 57.7913 26.7667 57.9963 37.3563C58.0265 38.9111 57.871 40.4244 57.5509 41.876C57.0087 44.3339 56.6865 46.835 56.6865 49.352V54.2172C56.6865 54.9626 56.0822 55.5668 55.3368 55.5668H50.4716C47.9546 55.5668 45.4535 55.8891 42.9956 56.4313C41.5442 56.7514 40.0309 56.9068 38.4761 56.8767C27.8866 56.6718 19.5512 48.0282 19.7128 37.438C19.8703 27.1011 28.2203 18.751 38.5571 18.5931Z" fill="url(#paint0_linear_55_1283)" fill-opacity="0.5"/>
<path d="M21.2126 37.4609L21.2126 37.4609L57.5509 41.876L56.0861 41.5529C56.0861 41.5529 56.0861 41.5529 56.0861 41.553C55.525 44.0967 55.1865 46.7075 55.1865 49.352V54.0668H50.4716C47.8271 54.0668 45.2164 54.4054 42.6726 54.9665C41.3359 55.2613 39.9407 55.4048 38.5051 55.377C28.7429 55.1881 21.0636 47.2266 21.2126 37.4609Z" stroke="#CDBBEF" stroke-opacity="0.2" stroke-width="3"/>
<path d="M23.6868 1.12245C10.7847 0.925341 0.254235 11.08 0.00433659 23.9811C-0.0322532 25.875 0.157039 27.7189 0.547179 29.4872C1.20761 32.4815 1.60024 35.5286 1.60024 38.595V44.5221C1.60024 45.4302 2.33634 46.1664 3.24451 46.1664H9.1716C12.2379 46.1664 15.285 46.559 18.2794 47.2194C20.0477 47.6095 21.8915 47.7989 23.7854 47.7622C36.6863 47.5124 46.841 36.9822 46.6443 24.0804C46.4522 11.4873 36.2798 1.31469 23.6868 1.12245Z" fill="url(#paint1_linear_55_1283)"/>
<path d="M12.346 29.2783C14.3413 29.2783 15.9587 27.6608 15.9587 25.6656C15.9587 23.6704 14.3413 22.053 12.346 22.053C10.3508 22.053 8.7334 23.6704 8.7334 25.6656C8.7334 27.6608 10.3508 29.2783 12.346 29.2783Z" fill="white"/>
<path d="M12.346 29.2783C14.3413 29.2783 15.9587 27.6608 15.9587 25.6656C15.9587 23.6704 14.3413 22.053 12.346 22.053C10.3508 22.053 8.7334 23.6704 8.7334 25.6656C8.7334 27.6608 10.3508 29.2783 12.346 29.2783Z" fill="url(#paint2_linear_55_1283)"/>
<path d="M22.5631 29.2783C24.5583 29.2783 26.1757 27.6608 26.1757 25.6656C26.1757 23.6704 24.5583 22.053 22.5631 22.053C20.5679 22.053 18.9504 23.6704 18.9504 25.6656C18.9504 27.6608 20.5679 29.2783 22.5631 29.2783Z" fill="white"/>
<path d="M22.5631 29.2783C24.5583 29.2783 26.1757 27.6608 26.1757 25.6656C26.1757 23.6704 24.5583 22.053 22.5631 22.053C20.5679 22.053 18.9504 23.6704 18.9504 25.6656C18.9504 27.6608 20.5679 29.2783 22.5631 29.2783Z" fill="url(#paint3_linear_55_1283)"/>
<path d="M32.7802 29.2783C34.7755 29.2783 36.3929 27.6608 36.3929 25.6656C36.3929 23.6704 34.7755 22.053 32.7802 22.053C30.785 22.053 29.1676 23.6704 29.1676 25.6656C29.1676 27.6608 30.785 29.2783 32.7802 29.2783Z" fill="white"/>
<path d="M32.7802 29.2783C34.7755 29.2783 36.3929 27.6608 36.3929 25.6656C36.3929 23.6704 34.7755 22.053 32.7802 22.053C30.785 22.053 29.1676 23.6704 29.1676 25.6656C29.1676 27.6608 30.785 29.2783 32.7802 29.2783Z" fill="url(#paint4_linear_55_1283)"/>
</g>
<defs>
<linearGradient id="paint0_linear_55_1283" x1="27.969" y1="18.5908" x2="58" y2="18.5908" gradientUnits="userSpaceOnUse">
<stop stop-color="#E1D8FF"/>
<stop offset="1" stop-color="#F4ECFF"/>
</linearGradient>
<linearGradient id="paint1_linear_55_1283" x1="10.061" y1="1.11963" x2="46.6471" y2="1.11963" gradientUnits="userSpaceOnUse">
<stop stop-color="#E1D8FF"/>
<stop offset="1" stop-color="#F4ECFF"/>
</linearGradient>
<linearGradient id="paint2_linear_55_1283" x1="12.346" y1="22.053" x2="12.346" y2="29.2783" gradientUnits="userSpaceOnUse">
<stop stop-color="#4614E8"/>
<stop offset="1" stop-color="#BCA7FF"/>
</linearGradient>
<linearGradient id="paint3_linear_55_1283" x1="22.5631" y1="22.053" x2="22.5631" y2="29.2783" gradientUnits="userSpaceOnUse">
<stop stop-color="#4614E8"/>
<stop offset="1" stop-color="#BCA7FF"/>
</linearGradient>
<linearGradient id="paint4_linear_55_1283" x1="32.7802" y1="22.053" x2="32.7802" y2="29.2783" gradientUnits="userSpaceOnUse">
<stop stop-color="#4614E8"/>
<stop offset="1" stop-color="#BCA7FF"/>
</linearGradient>
<clipPath id="clip0_55_1283">
<rect width="58" height="58" fill="white"/>
</clipPath>
</defs>
</svg>
