<svg width="40" height="30" viewBox="0 0 40 30" fill="none" xmlns="http://www.w3.org/2000/svg">
<path d="M14.1158 27.619H21.524V30H11.8633V0H14.1158V27.619Z" fill="#3B1D8F"/>
<path d="M2.2525 0H0V30H2.2525V0Z" fill="#3B1D8F"/>
<path d="M25.5284 15.0265C25.5284 21.9577 30.8843 27.619 37.4416 27.619V30C29.5829 30 23.2258 23.2804 23.2258 15.0265C23.2759 6.71958 29.6329 0 37.4917 0V2.38095C30.8843 2.38095 25.5284 8.04233 25.5284 15.0265Z" fill="#3B1D8F"/>
<path d="M39.0934 14.9736C39.0934 15.9259 38.3927 16.6667 37.4917 16.6667C36.5907 16.6667 35.8899 15.9259 35.8899 14.9736C35.8899 14.0212 36.5907 13.2804 37.4917 13.2804C38.3426 13.2804 39.0934 14.0741 39.0934 14.9736Z" fill="#3B1D8F"/>
</svg>
